<svg height="480pt" viewBox="0 0 480 480" width="480pt" xmlns="http://www.w3.org/2000/svg"><path d="m471.976562 240.023438c0 128.128906-103.871093 232-232 232-128.128906 0-232-103.871094-232-232 0-128.128907 103.871094-232 232-232 128.128907 0 232 103.871093 232 232zm0 0" fill="#a8a8a8"/><path d="m269.230469 9.878906c-87.441407-11.101562-173.621094 28.308594-222.421875 101.710938-48.796875 73.402344-51.789063 168.117187-7.710938 244.449218 74.085938 97.265626 210.945313 120.332032 312.824219 52.730469 101.878906-67.601562 133.808594-202.664062 72.980469-308.730469-37.589844-49.835937-93.734375-82.355468-155.671875-90.160156zm0 0" fill="#b9b9b9"/><path d="m88 384c-4.117188-.023438-7.542969-3.167969-7.917969-7.265625-.378906-4.097656 2.414063-7.8125 6.453125-8.589844l32.121094-6.023437c2.863281-.664063 5.859375.292968 7.804688 2.5 1.945312 2.203125 2.527343 5.296875 1.511718 8.054687-1.015625 2.757813-3.460937 4.738281-6.371094 5.15625l-32.121093 6.023438c-.488281.09375-.984375.144531-1.480469.144531zm0 0" fill="#a8a8a8"/><path d="m144 368c-3.445312 0-6.5-2.203125-7.589844-5.46875-1.089844-3.269531.035156-6.863281 2.789063-8.929688l32-24c3.535156-2.652343 8.550781-1.9375 11.199219 1.597657 2.652343 3.535156 1.9375 8.550781-1.597657 11.199219l-32 24c-1.386719 1.039062-3.070312 1.601562-4.800781 1.601562zm0 0" fill="#a8a8a8"/><path d="m204 156c0 24.300781-19.699219 44-44 44s-44-19.699219-44-44 19.699219-44 44-44 44 19.699219 44 44zm0 0" fill="#cdcdcd"/><path d="m116 156c.007812 1.683594.109375 3.367188.3125 5.039062 14.289062 9.230469 32.625 9.371094 47.050781.359376 14.429688-9.011719 22.347657-25.550782 20.324219-42.4375-13.53125-8.683594-30.726562-9.285157-44.835938-1.566407-14.105468 7.71875-22.871093 22.527344-22.851562 38.605469zm0 0" fill="#a8a8a8"/><path d="m304 296c-.351562 0-.707031-.023438-1.054688-.070312l-120-16c-4.296874-.671876-7.273437-4.652344-6.699218-8.960938.574218-4.3125 4.488281-7.375 8.808594-6.898438l118.015624 15.738282 62.121094-23.304688c4.140625-1.546875 8.75.554688 10.296875 4.695313s-.554687 8.75-4.695312 10.296875l-64 24c-.894531.332031-1.839844.503906-2.792969.503906zm0 0" fill="#cdcdcd"/><path d="m420 256c0 15.464844-12.535156 28-28 28s-28-12.535156-28-28 12.535156-28 28-28 28 12.535156 28 28zm0 0" fill="#cdcdcd"/><path d="m360 136c0 13.253906-10.746094 24-24 24s-24-10.746094-24-24 10.746094-24 24-24 24 10.746094 24 24zm0 0" fill="#cdcdcd"/><path d="m360 360c0 8.835938-7.164062 16-16 16s-16-7.164062-16-16 7.164062-16 16-16 16 7.164062 16 16zm0 0" fill="#cdcdcd"/><path d="m264 368c0 8.835938-7.164062 16-16 16s-16-7.164062-16-16 7.164062-16 16-16 16 7.164062 16 16zm0 0" fill="#939393"/><path d="m247.871094 471.886719c.007812-2.847657-1.519532-5.476563-4-6.878907l-20.398438-11.335937c-22.410156-12.5-41.859375-29.691406-57.015625-50.398437-2.609375-3.570313-7.613281-4.351563-11.183593-1.746094-3.570313 2.609375-4.351563 7.613281-1.746094 11.183594 16.53125 22.570312 37.734375 41.308593 62.167968 54.9375l6.664063 3.695312c8.488281.652344 17.003906.832031 25.511719.542969zm0 0" fill="#b6b6b6"/><path d="m166.464844 403.28125c-2.609375-3.570312-7.613282-4.351562-11.183594-1.746094-3.570312 2.609375-4.351562 7.613282-1.746094 11.183594 8.472656 11.566406 18.207032 22.152344 29.015625 31.570312 4.035157.722657 8.105469 1.355469 12.21875 1.886719 6.328125.800781 12.621094 1.273438 18.886719 1.601563-18.316406-11.828125-34.3125-26.90625-47.191406-44.496094zm0 0" fill="#cdcdcd"/><path d="m326.464844 412.71875c2.605468-3.570312 1.824218-8.574219-1.746094-11.183594-3.570312-2.605468-8.574219-1.824218-11.183594 1.746094-15.15625 20.703125-34.601562 37.894531-57.007812 50.398438l-8.527344 4.71875v-26.398438c0-4.417969-3.582031-8-8-8s-8 3.582031-8 8v39.855469c8.519531.316406 17.050781.164062 25.550781-.457031l6.746094-3.742188c24.433594-13.628906 45.636719-32.367188 62.167969-54.9375zm0 0" fill="#b6b6b6"/><g fill="#cdcdcd"><path d="m313.535156 403.28125c-11.082031 15.125-24.484375 28.410156-39.710937 39.359375 12.765625-2.8125 25.269531-6.707031 37.375-11.632813 5.464843-5.773437 10.566406-11.882812 15.273437-18.289062 2.605469-3.570312 1.824219-8.574219-1.746094-11.183594-3.570312-2.605468-8.574218-1.824218-11.183593 1.746094zm0 0"/><path d="m232 447.878906c5.375-.175781 10.703125-.566406 16-1.117187v-14.761719c0-4.417969-3.582031-8-8-8s-8 3.582031-8 8zm0 0"/><path d="m352 360c-2.832031-.003906-5.449219-1.503906-6.882812-3.945312-1.4375-2.441407-1.472657-5.457032-.101563-7.933594l40-72c1.335937-2.589844 3.980469-4.25 6.894531-4.328125 2.914063-.078125 5.640625 1.433593 7.113282 3.949219 1.476562 2.515624 1.46875 5.632812-.023438 8.136718l-40 72c-1.410156 2.542969-4.089844 4.121094-7 4.121094zm0 0"/><path d="m376 208c-2.867188.007812-5.519531-1.515625-6.953125-4l-32-56c-1.5-2.484375-1.535156-5.589844-.089844-8.109375 1.441407-2.519531 4.136719-4.058594 7.039063-4.023437 2.902344.035156 5.558594 1.644531 6.941406 4.195312l32 56c2.1875 3.835938.855469 8.722656-2.976562 10.914062-1.207032.683594-2.574219 1.035157-3.960938 1.023438zm0 0"/><path d="m408 144c-.382812 0-.765625-.027344-1.144531-.078125l-56-8c-4.375-.628906-7.410157-4.683594-6.785157-9.058594.628907-4.375 4.683594-7.410156 9.058594-6.785156l56 8c4.15625.59375 7.148438 4.300781 6.851563 8.488281s-3.78125 7.433594-7.980469 7.433594zm0 0"/><path d="m296 192c-3.078125 0-5.878906-1.761719-7.214844-4.535156-1.332031-2.773438-.957031-6.0625.96875-8.464844l32-40c2.757813-3.449219 7.796875-4.007812 11.246094-1.246094 3.449219 2.757813 4.007812 7.796875 1.246094 11.246094l-32 40c-1.515625 1.898438-3.816406 3-6.246094 3zm0 0"/><path d="m56 240h16v16h-16zm0 0"/><path d="m88 224h16v16h-16zm0 0"/></g><path d="m64 200h16v16h-16zm0 0" fill="#a8a8a8"/><path d="m40 168h16v16h-16zm0 0" fill="#cdcdcd"/><path d="m72 160h16v16h-16zm0 0" fill="#a8a8a8"/><path d="m56 128h16v16h-16zm0 0" fill="#a8a8a8"/><path d="m416 456h16v16h-16zm0 0" fill="#fbb540"/><path d="m24 464h16v16h-16zm0 0" fill="#fbb540"/><path d="m24 416h16v16h-16zm0 0" fill="#fbd699"/><path d="m48 440h16v16h-16zm0 0" fill="#fbb540"/><path d="m0 440h16v16h-16zm0 0" fill="#fbd699"/><path d="m456 448h16v16h-16zm0 0" fill="#fbb540"/><path d="m432 416h16v16h-16zm0 0" fill="#fbd699"/><path d="m464 0h16v16h-16zm0 0" fill="#fbd699"/><path d="m464 40h16v16h-16zm0 0" fill="#fbd699"/><path d="m416 24h16v16h-16zm0 0" fill="#fbb540"/><path d="m8 8h16v16h-16zm0 0" fill="#fbb540"/><path d="m56 24h16v16h-16zm0 0" fill="#c0f5f9"/><path d="m32 208h16v16h-16zm0 0" fill="#cdcdcd"/><path d="m48 304h16v16h-16zm0 0" fill="#a8a8a8"/><path d="m72 328h16v16h-16zm0 0" fill="#939393"/><path d="m272 120h16v16h-16zm0 0" fill="#a8a8a8"/><path d="m248 88h16v16h-16zm0 0" fill="#a8a8a8"/><path d="m288 88h16v16h-16zm0 0" fill="#a8a8a8"/><path d="m320 72h16v16h-16zm0 0" fill="#a8a8a8"/><path d="m143.007812 264.0625-63.503906 7.9375h-69.238281c.742187 5.375 1.597656 10.726562 2.710937 16h67.023438c.332031 0 .664062-.023438.992188-.0625l64-8c2.886718-.292969 5.390624-2.128906 6.542968-4.792969 1.148438-2.667969.761719-5.746093-1.007812-8.046875-1.769532-2.300781-4.648438-3.460937-7.519532-3.035156zm0 0" fill="#a8a8a8"/><path d="m318.863281 48.496094 23.664063-16.566406c-5.597656-2.746094-11.199219-5.3125-17.03125-7.617188l-15.808594 11.070312c-30.46875 21.191407-68.097656 29.425782-104.632812 22.898438-19.242188-3.519531-38.980469-3.347656-58.160157.511719l-12.550781 2.511719c-14.542969 2.878906-29.453125 3.417968-44.167969 1.597656-5.128906 4.335937-10.046875 8.914062-14.792969 13.683594 10.433594 2.21875 21.0625 3.363281 31.730469 3.414062 10.207031.003906 20.390625-1 30.398438-3l12.542969-2.511719c17.203124-3.457031 34.902343-3.613281 52.160156-.464843 40.730468 7.304687 82.695312-1.878907 116.648437-25.527344zm0 0" fill="#a8a8a8"/><path d="m471.847656 247.097656-31.273437 15.671875-24.574219-16.839843-4.441406 16.726562 24 16c2.386718 1.589844 5.4375 1.78125 8 .503906l26.914062-13.457031c.726563-6.230469 1.183594-12.4375 1.375-18.605469zm0 0" fill="#b6b6b6"/><path d="m440.574219 262.769531-24.574219-16.839843-4.441406 16.726562 24 16c2.386718 1.589844 5.4375 1.78125 8 .503906l4.257812-2.128906c1.792969-6.617188 3.351563-13.335938 4.574219-20.191406zm0 0" fill="#cdcdcd"/><path d="m128 360c-3.046875.015625-5.839844-1.699219-7.199219-4.425781l-16-32c-1.976562-3.953125-.371093-8.757813 3.582031-10.734375 3.957032-1.976563 8.761719-.371094 10.738282 3.585937l16 32c1.234375 2.472657 1.105468 5.410157-.34375 7.765625-1.449219 2.355469-4.011719 3.796875-6.777344 3.808594zm0 0" fill="#a8a8a8"/><path d="m184 392c-.65625 0-1.3125-.082031-1.953125-.238281l-32-8c-4.253906-1.101563-6.828125-5.425781-5.757813-9.691407 1.066407-4.265624 5.375-6.867187 9.648438-5.832031l32 8c3.914062.984375 6.484375 4.730469 5.992188 8.738281-.492188 4.007813-3.890626 7.019532-7.929688 7.023438zm0 0" fill="#a8a8a8"/><path d="m128 416c-.855469-.003906-1.707031-.140625-2.519531-.40625-4.1875-1.394531-6.457031-5.914062-5.074219-10.105469l8-24.128906c1.390625-4.195313 5.921875-6.472656 10.117188-5.082031 4.199218 1.386718 6.472656 5.917968 5.085937 10.113281l-8 24.121094c-1.085937 3.28125-4.15625 5.492187-7.609375 5.488281zm0 0" fill="#a8a8a8"/><path d="m288 340c0 11.046875-8.953125 20-20 20s-20-8.953125-20-20 8.953125-20 20-20 20 8.953125 20 20zm0 0" fill="#939393"/><path d="m160 368c0 13.253906-10.746094 24-24 24s-24-10.746094-24-24 10.746094-24 24-24 24 10.746094 24 24zm0 0" fill="#a8a8a8"/></svg>