<?xml version="1.0" encoding="iso-8859-1"?>
<!-- Generator: Adobe Illustrator 19.0.0, SVG Export Plug-In . SVG Version: 6.00 Build 0)  -->
<svg version="1.1" id="Capa_1" xmlns="http://www.w3.org/2000/svg" xmlns:xlink="http://www.w3.org/1999/xlink" x="0px" y="0px"
	 viewBox="0 0 472 472" style="enable-background:new 0 0 472 472;" xml:space="preserve">
<path style="fill:#FFECC5;" d="M60,201.6c5.28-24.683,15.573-48.018,30.24-68.56c53.181-74.442,152.977-98.505,234.24-56.48
	c30.589,15.709,56.106,39.756,73.6,69.36c13.656,22.789,22.148,48.294,24.88,74.72c3.641,34.359-2.487,69.048-17.68,100.08
	c-15.626,32.216-40.388,59.121-71.2,77.36c-49.806,29.737-110.744,34.158-164.32,11.92c-15.494-6.298-30.034-14.726-43.2-25.04
	c-17.347-13.555-32.093-30.143-43.52-48.96l-1.2-1.92C58.127,294.279,50.326,246.988,60,201.68"/>
<circle cx="424" cy="48" r="8"/>
<path style="fill:#FFECC5;" d="M126.56,384.96c-17.347-13.555-32.093-30.143-43.52-48.96c20.24-21.12,50.88-30.08,78.32-42.96
	c26-12.24,48.24-39.44,78.64-45.68c28.48-5.92,60.24-0.08,90.64-2c29.68-1.92,62.56-25.44,92.32-24.72
	c3.641,34.359-2.487,69.048-17.68,100.08c-19.44-4-29.68-8.8-47.92-9.36c-20.96-0.64-32.64,5.04-51.36,8
	c-20.72,3.28-57.52,4-75.36,10.64c-19.68,7.36-31.92,18.48-47.84,28.48C164.72,369.92,139.52,372,126.56,384.96L126.56,384.96z"/>
<path style="fill:#8A4325;" d="M383.36,355.36c-51.226,63.533-138.158,85.77-213.6,54.64c17.92-10.72,50.24-16.56,72.64-24.64
	c21.92-7.92,42-20.96,66.24-24.72C331.84,357.12,359.36,358.4,383.36,355.36L383.36,355.36z"/>
<path style="fill:#DB8F35;" d="M357.36,311.36c18.24,0.56,28.48,5.36,47.92,9.36c-5.968,12.341-13.322,23.963-21.92,34.64
	c-24,3.04-51.52,1.76-74.72,5.28c-24.24,3.76-44.32,16.8-66.24,24.72c-22.4,8.08-54.72,13.92-72.64,24.64
	c-15.494-6.298-30.034-14.726-43.2-25.04c12.96-12.96,38.16-15.04,56.24-26.48c15.92-10,28.16-21.12,47.84-28.48
	c17.84-6.64,54.64-7.36,75.36-10.64C324.72,316.4,336.4,310.72,357.36,311.36L357.36,311.36z"/>
<g>
	<path style="fill:#FFECC5;" d="M145.92,81.84c54.604-32.512,122.13-34.509,178.56-5.28c-13.623-2.069-27.351-3.378-41.12-3.92
		c-20.96-0.56-36.64,9.04-55.36,12c-24.287,4.839-48.149,11.607-71.36,20.24c-19.68,7.36-50.48,18.08-66.4,28.16
		C105.015,112.267,123.983,94.825,145.92,81.84L145.92,81.84z"/>
	<path style="fill:#FFECC5;" d="M207.76,120.72c27.28-5.84,57.76,6.08,85.28,3.68c29.28-2.56,46.08-19.52,71.92-19.52
		c12.94,12.032,24.092,25.851,33.12,41.04c8.697,14.499,15.321,30.144,19.68,46.48c-38.4-7.04-46.08,4.08-91.6,8
		c-29.2,2.56-64.72-7.92-97.28,0.16c-31.76,7.76-57.84,33.2-85.28,46.24c-32.88,15.68-54.24,19.84-79.84,46.24
		c-8.975-29.643-10.269-61.08-3.76-91.36v-0.08c1.36-1.6,21.76-26.08,72.8-40.8C158.56,153.36,179.6,126.72,207.76,120.72
		L207.76,120.72z"/>
</g>
<path style="fill:#C06515;" d="M161.36,293.04c-27.44,12.88-58.08,21.84-78.32,42.96l-1.2-1.92
	c-7.674-12.893-13.746-26.675-18.08-41.04c25.6-26.4,46.96-30.56,79.84-46.24c27.44-13.04,53.52-38.48,85.28-46.24
	c32.56-8.08,68.08,2.4,97.28-0.16c45.52-3.92,53.2-15.04,91.6-8c2.48,9.26,4.219,18.704,5.2,28.24
	c-29.76-0.72-62.64,22.8-92.32,24.72c-30.4,1.92-62.16-3.92-90.64,2C209.6,253.6,187.36,280.8,161.36,293.04L161.36,293.04z"/>
<path style="fill:#DB8F35;" d="M60,201.6c5.28-24.683,15.573-48.018,30.24-68.56c15.92-10.08,46.72-20.8,66.4-28.16
	c23.211-8.633,47.073-15.401,71.36-20.24c18.72-2.96,34.4-12.56,55.36-12c13.769,0.542,27.497,1.851,41.12,3.92
	c14.702,7.582,28.318,17.107,40.48,28.32c-25.84,0-42.64,16.96-71.92,19.52c-27.52,2.4-58-9.52-85.28-3.68
	c-28.16,6-49.2,32.64-74.96,40.08C81.76,175.52,61.36,200,60,201.6L60,201.6z"/>
<g>
	<path style="fill:#FFB546;" d="M432,408h16v16h-16V408z"/>
	<path style="fill:#FFB546;" d="M432,456h16v16h-16V456z"/>
	<path style="fill:#FFB546;" d="M411.722,423.028l11.316-11.312l11.312,11.316l-11.316,11.312L411.722,423.028z"/>
	<path style="fill:#FFB546;" d="M445.65,456.996l11.316-11.312L468.278,457l-11.316,11.312L445.65,456.996z"/>
	<path style="fill:#FFB546;" d="M408,432h16v16h-16V432z"/>
	<path style="fill:#FFB546;" d="M456,432h16v16h-16V432z"/>
	<path style="fill:#FFB546;" d="M411.723,456.956l11.314-11.314l11.314,11.314l-11.314,11.314L411.723,456.956z"/>
	<path style="fill:#FFB546;" d="M445.659,423.036l11.314-11.314l11.314,11.314l-11.314,11.314L445.659,423.036z"/>
</g>
<path style="fill:#D95354;" d="M40,112H24V88c0-13.255-10.745-24-24-24V48c13.255,0,24-10.745,24-24V0h16v24
	c0,13.255,10.745,24,24,24v16c-13.255,0-24,10.745-24,24V112z M24,56c3.029,2.278,5.722,4.971,8,8c2.278-3.029,4.971-5.722,8-8
	c-3.029-2.278-5.722-4.971-8-8C29.722,51.029,27.029,53.722,24,56z"/>
<g>
</g>
<g>
</g>
<g>
</g>
<g>
</g>
<g>
</g>
<g>
</g>
<g>
</g>
<g>
</g>
<g>
</g>
<g>
</g>
<g>
</g>
<g>
</g>
<g>
</g>
<g>
</g>
<g>
</g>
</svg>
